# Model 89f69d95f5598fddd42a2a5a47e9ed5
# Name butter knife
# Vertices
mtllib 89f69d95f5598fddd42a2a5a47e9ed5.mtl
v 0.547957 0.140152 0.125
vn 0.401178 -0.602447 -0.69001
vt -0.0578515 0.0437102
v 0.601104 0.254186 0.0625
vn 0.259986 -0.310718 -0.914255
vt -0.0557986 0.0421122
v 0.63934 0.20849 0.125
vn 0.464477 -0.555111 -0.69001
vt -0.0557383 0.0437102
v 0.601104 0.254186 0.0625
vn 0.259986 -0.310718 -0.914255
vt -0.0557986 0.0421122
v 0.547957 0.140152 0.125
vn 0.401178 -0.602447 -0.69001
vt -0.0578515 0.0437102
v 0.514932 0.189744 0.0625
vn 0.224556 -0.337214 -0.914255
vt -0.0577912 0.0421122
v 0.63934 0.20849 0.125
vn 0.464477 -0.555111 -0.69001
vt -0.0620536 0.0392691
v 0.679736 0.32764 0.0625
vn 0.292317 -0.280516 -0.914255
vt -0.0600007 0.0376712
v 0.722726 0.286386 0.125
vn 0.522237 -0.501154 -0.69001
vt -0.0599405 0.0392691
v 0.679736 0.32764 0.0625
vn 0.292317 -0.280516 -0.914255
vt -0.0600007 0.0376712
v 0.63934 0.20849 0.125
vn 0.464477 -0.555111 -0.69001
vt -0.0620536 0.0392691
v 0.601104 0.254186 0.0625
vn 0.259986 -0.310718 -0.914255
vt -0.0619934 0.0376712
v 0.722726 0.286386 0.125
vn 0.522237 -0.501154 -0.69001
vt -0.0655283 0.0345387
v 0.749889 0.40923 0.0625
vn 0.321161 -0.246969 -0.914255
vt -0.0634755 0.0329407
v 0.797121 0.37291 0.125
vn 0.573769 -0.441221 -0.69001
vt -0.0634152 0.0345387
v 0.749889 0.40923 0.0625
vn 0.321161 -0.246969 -0.914255
vt -0.0634755 0.0329407
v 0.722726 0.286386 0.125
vn 0.522237 -0.501154 -0.69001
vt -0.0655283 0.0345387
v 0.679736 0.32764 0.0625
vn 0.292317 -0.280516 -0.914255
vt -0.0654681 0.0329407
v 0.797121 0.37291 0.125
vn 0.573769 -0.441221 -0.69001
vt -0.0682342 0.0295752
v 0.810728 0.497983 0.0625
vn 0.346176 -0.210477 -0.914255
vt -0.0661813 0.0279773
v 0.861638 0.467029 0.125
vn 0.618458 -0.376027 -0.69001
vt -0.0661211 0.0295752
v 0.810728 0.497983 0.0625
vn 0.346176 -0.210477 -0.914255
vt -0.0661813 0.0279773
v 0.797121 0.37291 0.125
vn 0.573769 -0.441221 -0.69001
vt -0.0682342 0.0295752
v 0.749889 0.40923 0.0625
vn 0.321161 -0.246969 -0.914255
vt -0.068174 0.0279773
v 0.861638 0.467029 0.125
vn 0.618458 -0.376027 -0.69001
vt -0.070139 0.0244379
v 0.861526 0.592841 0.0625
vn 0.367062 -0.171475 -0.914255
vt -0.0680861 0.02284
v 0.915508 0.567623 0.125
vn 0.655773 -0.306348 -0.69001
vt -0.0680259 0.0244379
v 0.861526 0.592841 0.0625
vn 0.367062 -0.171475 -0.914255
vt -0.0680861 0.02284
v 0.861638 0.467029 0.125
vn 0.618458 -0.376027 -0.69001
vt -0.070139 0.0244379
v 0.810728 0.497983 0.0625
vn 0.346176 -0.210477 -0.914255
vt -0.0700788 0.02284
v 0.915508 0.567623 0.125
vn 0.655773 -0.306348 -0.69001
vt -0.0712199 0.019188
v 0.901678 0.692672 0.0625
vn 0.383571 -0.130428 -0.914255
vt -0.0691671 0.0175901
v 0.958088 0.67349 0.125
vn 0.685267 -0.233016 -0.69001
vt -0.0691068 0.019188
v 0.901678 0.692672 0.0625
vn 0.383571 -0.130428 -0.914255
vt -0.0691671 0.0175901
v 0.915508 0.567623 0.125
vn 0.655773 -0.306348 -0.69001
vt -0.0712199 0.019188
v 0.861526 0.592841 0.0625
vn 0.367062 -0.171475 -0.914255
vt -0.0711597 0.0175901
v 0.98887 0.783369 0.125
vn 0.706589 -0.156905 -0.69001
vt -0.069351 0.0138882
v 0.901678 0.692672 0.0625
vn 0.383571 -0.130428 -0.914255
vt -0.0714039 0.0122902
v 0.930704 0.796286 0.0625
vn 0.395506 -0.0878261 -0.914255
vt -0.0694113 0.0122902
v 0.901678 0.692672 0.0625
vn 0.383571 -0.130428 -0.914255
vt -0.0714039 0.0122902
v 0.98887 0.783369 0.125
vn 0.706589 -0.156905 -0.69001
vt -0.069351 0.0138882
v 0.958088 0.67349 0.125
vn 0.685267 -0.233016 -0.69001
vt -0.0714642 0.0138882
v 1.00749 0.89595 0.125
vn 0.719485 -0.0789231 -0.69001
vt -0.0687556 0.00860155
v 0.930704 0.796286 0.0625
vn 0.395506 -0.0878261 -0.914255
vt -0.0708085 0.00700362
v 0.94826 0.902447 0.0625
vn 0.402724 -0.0441764 -0.914255
vt -0.0688159 0.00700362
v 0.930704 0.796286 0.0625
vn 0.395506 -0.0878261 -0.914255
vt -0.0708085 0.00700362
v 1.00749 0.89595 0.125
vn 0.719485 -0.0789231 -0.69001
vt -0.0687556 0.00860155
v 0.98887 0.783369 0.125
vn 0.706589 -0.156905 -0.69001
vt -0.0708688 0.00860155
v 1.01372 1.00989 0.125
vn 0.723916 -0.0197782 -0.689605
vt -0.0673277 0.00339123
v 0.94826 0.902447 0.0625
vn 0.402724 -0.0441764 -0.914255
vt -0.0693806 0.0017933
v 0.954224 1.01151 0.0625
vn 0.399559 -0.0109164 -0.916643
vt -0.0673578 0.0017933
v 0.94826 0.902447 0.0625
vn 0.402724 -0.0441764 -0.914255
vt -0.0693806 0.0017933
v 1.01372 1.00989 0.125
vn 0.723916 -0.0197782 -0.689605
vt -0.0673277 0.00339123
v 1.00749 0.89595 0.125
vn 0.719485 -0.0789231 -0.69001
vt -0.0694408 0.00339123
v 1.01372 4.67812 0.125
vn 0.671941 0.218921 -0.707509
vt 0.000567188 0.000854053
v 0.954224 1.01151 0.0625
vn 0.399559 -0.0109164 -0.916643
vt -0.067333 -0.000743882
v 0.954224 4.65874 0.0625
vn 0.422026 0.137498 -0.896096
vt 0.000208241 -0.000743882
v 0.954224 1.01151 0.0625
vn 0.399559 -0.0109164 -0.916643
vt -0.067333 -0.000743882
v 1.01372 4.67812 0.125
vn 0.671941 0.218921 -0.707509
vt 0.000567188 0.000854053
v 1.01372 1.00989 0.125
vn 0.723916 -0.0197782 -0.689605
vt -0.0673631 0.000854053
v 0.954224 4.65874 0.0625
vn 0.422026 0.137498 -0.896096
vt 0.0015201 -0.000355641
v 0.763718 5.02106 0.125
vn 0.585301 0.426678 -0.68947
vt 0.00902027 0.00124229
v 1.01372 4.67812 0.125
vn 0.671941 0.218921 -0.707509
vt 0.00116116 0.00124229
v 0.763718 5.02106 0.125
vn 0.585301 0.426678 -0.68947
vt 0.00902027 0.00124229
v 0.954224 4.65874 0.0625
vn 0.422026 0.137498 -0.896096
vt 0.0015201 -0.000355641
v 0.762446 4.92181 0.0625
vn 0.00524719 0.409501 -0.912295
vt 0.00754894 -0.000355641
v 0.318918 0.0265925 0.125
vn 0.262157 -0.6755 -0.689183
vt -0.0440674 0.0531512
v 0.348636 0.101892 0.0625
vn 0.154464 -0.368519 -0.916698
vt -0.0430499 0.0515539
v 0.371619 0.0469937 0.125
vn 0.279992 -0.668024 -0.689455
vt -0.0430209 0.0531519
v 0.348636 0.101892 0.0625
vn 0.154464 -0.368519 -0.916698
vt -0.0430499 0.0515539
v 0.318918 0.0265925 0.125
vn 0.262157 -0.6755 -0.689183
vt -0.0440674 0.0531512
v 0.296618 0.081652 0.0625
vn -0.302686 -0.249926 -0.919738
vt -0.0440835 0.0515545
v 0.371619 0.0469937 0.125
vn 0.279992 -0.668024 -0.689455
vt -0.0469458 0.0515162
v 0.422247 0.135083 0.0625
vn 0.186447 -0.359689 -0.914255
vt -0.0454206 0.0499182
v 0.449667 0.082185 0.125
vn 0.333095 -0.6426 -0.69001
vt -0.0453604 0.0515162
v 0.422247 0.135083 0.0625
vn 0.186447 -0.359689 -0.914255
vt -0.0454206 0.0499182
v 0.371619 0.0469937 0.125
vn 0.279992 -0.668024 -0.689455
vt -0.0469458 0.0515162
v 0.348636 0.101892 0.0625
vn 0.154464 -0.368519 -0.916698
vt -0.046916 0.0499182
v 0.449667 0.082185 0.125
vn 0.333095 -0.6426 -0.69001
vt -0.0529721 0.0478088
v 0.514932 0.189744 0.0625
vn 0.224556 -0.337214 -0.914255
vt -0.0509192 0.0462109
v 0.547957 0.140152 0.125
vn 0.401178 -0.602447 -0.69001
vt -0.0508589 0.0478088
v 0.514932 0.189744 0.0625
vn 0.224556 -0.337214 -0.914255
vt -0.0509192 0.0462109
v 0.449667 0.082185 0.125
vn 0.333095 -0.6426 -0.69001
vt -0.0529721 0.0478088
v 0.422247 0.135083 0.0625
vn 0.186447 -0.359689 -0.914255
vt -0.0529118 0.0462109
v 0.763718 5.02106 0.125
vn 0.585301 0.426678 0.68947
vt 0.00902027 0.00211101
v 0.954224 4.65874 0.1875
vn 0.422026 0.137498 0.896096
vt 0.0015201 0.00370895
v 1.01372 4.67812 0.125
vn 0.671941 0.218921 0.707509
vt 0.00116116 0.00211101
v 0.954224 4.65874 0.1875
vn 0.422026 0.137498 0.896096
vt 0.0015201 0.00370895
v 0.763718 5.02106 0.125
vn 0.585301 0.426678 0.68947
vt 0.00902027 0.00211101
v 0.762446 4.92181 0.1875
vn 0.00524719 0.409501 0.912295
vt 0.00754894 0.00370895
v 0.954224 1.01151 0.1875
vn 0.399559 -0.0109164 0.916643
vt -0.067333 0.00409719
v 1.01372 4.67812 0.125
vn 0.671941 0.218921 0.707509
vt 0.000567188 0.00249926
v 0.954224 4.65874 0.1875
vn 0.422026 0.137498 0.896096
vt 0.000208241 0.00409719
v 1.01372 4.67812 0.125
vn 0.671941 0.218921 0.707509
vt 0.000567188 0.00249926
v 0.954224 1.01151 0.1875
vn 0.399559 -0.0109164 0.916643
vt -0.067333 0.00409719
v 1.01372 1.00989 0.125
vn 0.723916 -0.0197782 0.689605
vt -0.0673631 0.00249926
v 0.94826 0.902447 0.1875
vn 0.402724 -0.0441764 0.914255
vt -0.0693806 0.00156001
v 1.01372 1.00989 0.125
vn 0.723916 -0.0197782 0.689605
vt -0.0673277 -3.79235e-005
v 0.954224 1.01151 0.1875
vn 0.399559 -0.0109164 0.916643
vt -0.0673578 0.00156001
v 1.01372 1.00989 0.125
vn 0.723916 -0.0197782 0.689605
vt -0.0673277 -3.79235e-005
v 0.94826 0.902447 0.1875
vn 0.402724 -0.0441764 0.914255
vt -0.0693806 0.00156001
v 1.00749 0.89595 0.125
vn 0.719485 -0.0789231 0.69001
vt -0.0694408 -3.79235e-005
v 0.930704 0.796286 0.1875
vn 0.395506 -0.0878261 0.914255
vt -0.0708085 -0.00365031
v 1.00749 0.89595 0.125
vn 0.719485 -0.0789231 0.69001
vt -0.0687556 -0.00524824
v 0.94826 0.902447 0.1875
vn 0.402724 -0.0441764 0.914255
vt -0.0688159 -0.00365031
v 1.00749 0.89595 0.125
vn 0.719485 -0.0789231 0.69001
vt -0.0687556 -0.00524824
v 0.930704 0.796286 0.1875
vn 0.395506 -0.0878261 0.914255
vt -0.0708085 -0.00365031
v 0.98887 0.783369 0.125
vn 0.706589 -0.156905 0.69001
vt -0.0708688 -0.00524824
v 0.901678 0.692672 0.1875
vn 0.383571 -0.130428 0.914255
vt -0.0714039 -0.00893692
v 0.98887 0.783369 0.125
vn 0.706589 -0.156905 0.69001
vt -0.069351 -0.0105349
v 0.930704 0.796286 0.1875
vn 0.395506 -0.0878261 0.914255
vt -0.0694113 -0.00893692
v 0.98887 0.783369 0.125
vn 0.706589 -0.156905 0.69001
vt -0.069351 -0.0105349
v 0.901678 0.692672 0.1875
vn 0.383571 -0.130428 0.914255
vt -0.0714039 -0.00893692
v 0.958088 0.67349 0.125
vn 0.685267 -0.233016 0.69001
vt -0.0714642 -0.0105349
v 0.901678 0.692672 0.1875
vn 0.383571 -0.130428 0.914255
vt -0.0691671 -0.0142368
v 0.915508 0.567623 0.125
vn 0.655773 -0.306348 0.69001
vt -0.0712199 -0.0158347
v 0.958088 0.67349 0.125
vn 0.685267 -0.233016 0.69001
vt -0.0691068 -0.0158347
v 0.915508 0.567623 0.125
vn 0.655773 -0.306348 0.69001
vt -0.0712199 -0.0158347
v 0.901678 0.692672 0.1875
vn 0.383571 -0.130428 0.914255
vt -0.0691671 -0.0142368
v 0.861526 0.592841 0.1875
vn 0.367062 -0.171475 0.914255
vt -0.0711597 -0.0142368
v 0.861526 0.592841 0.1875
vn 0.367062 -0.171475 0.914255
vt -0.0680861 -0.0194866
v 0.861638 0.467029 0.125
vn 0.618458 -0.376027 0.69001
vt -0.070139 -0.0210846
v 0.915508 0.567623 0.125
vn 0.655773 -0.306348 0.69001
vt -0.0680259 -0.0210846
v 0.861638 0.467029 0.125
vn 0.618458 -0.376027 0.69001
vt -0.070139 -0.0210846
v 0.861526 0.592841 0.1875
vn 0.367062 -0.171475 0.914255
vt -0.0680861 -0.0194866
v 0.810728 0.497983 0.1875
vn 0.346176 -0.210477 0.914255
vt -0.0700788 -0.0194866
v 0.810728 0.497983 0.1875
vn 0.346176 -0.210477 0.914255
vt -0.0661813 -0.024624
v 0.797121 0.37291 0.125
vn 0.573769 -0.441221 0.69001
vt -0.0682342 -0.0262219
v 0.861638 0.467029 0.125
vn 0.618458 -0.376027 0.69001
vt -0.0661211 -0.0262219
v 0.797121 0.37291 0.125
vn 0.573769 -0.441221 0.69001
vt -0.0682342 -0.0262219
v 0.810728 0.497983 0.1875
vn 0.346176 -0.210477 0.914255
vt -0.0661813 -0.024624
v 0.749889 0.40923 0.1875
vn 0.321161 -0.246969 0.914255
vt -0.068174 -0.024624
v 0.749889 0.40923 0.1875
vn 0.321161 -0.246969 0.914255
vt -0.0634755 -0.0295874
v 0.722726 0.286386 0.125
vn 0.522237 -0.501154 0.69001
vt -0.0655283 -0.0311854
v 0.797121 0.37291 0.125
vn 0.573769 -0.441221 0.69001
vt -0.0634152 -0.0311854
v 0.722726 0.286386 0.125
vn 0.522237 -0.501154 0.69001
vt -0.0655283 -0.0311854
v 0.749889 0.40923 0.1875
vn 0.321161 -0.246969 0.914255
vt -0.0634755 -0.0295874
v 0.679736 0.32764 0.1875
vn 0.292317 -0.280516 0.914255
vt -0.0654681 -0.0295874
v 0.679736 0.32764 0.1875
vn 0.292317 -0.280516 0.914255
vt -0.0600007 -0.0343179
v 0.63934 0.20849 0.125
vn 0.464477 -0.555111 0.69001
vt -0.0620536 -0.0359158
v 0.722726 0.286386 0.125
vn 0.522237 -0.501154 0.69001
vt -0.0599405 -0.0359158
v 0.63934 0.20849 0.125
vn 0.464477 -0.555111 0.69001
vt -0.0620536 -0.0359158
v 0.679736 0.32764 0.1875
vn 0.292317 -0.280516 0.914255
vt -0.0600007 -0.0343179
v 0.601104 0.254186 0.1875
vn 0.259986 -0.310718 0.914255
vt -0.0619934 -0.0343179
v 0.601104 0.254186 0.1875
vn 0.259986 -0.310718 0.914255
vt -0.0557986 -0.0387589
v 0.547957 0.140152 0.125
vn 0.401178 -0.602447 0.69001
vt -0.0578515 -0.0403569
v 0.63934 0.20849 0.125
vn 0.464477 -0.555111 0.69001
vt -0.0557383 -0.0403569
v 0.547957 0.140152 0.125
vn 0.401178 -0.602447 0.69001
vt -0.0578515 -0.0403569
v 0.601104 0.254186 0.1875
vn 0.259986 -0.310718 0.914255
vt -0.0557986 -0.0387589
v 0.514932 0.189744 0.1875
vn 0.224556 -0.337214 0.914255
vt -0.0577912 -0.0387589
v 0.514932 0.189744 0.1875
vn 0.224556 -0.337214 0.914255
vt -0.0509192 -0.0428576
v 0.449667 0.082185 0.125
vn 0.333095 -0.6426 0.69001
vt -0.0529721 -0.0444555
v 0.547957 0.140152 0.125
vn 0.401178 -0.602447 0.69001
vt -0.0508589 -0.0444555
v 0.449667 0.082185 0.125
vn 0.333095 -0.6426 0.69001
vt -0.0529721 -0.0444555
v 0.514932 0.189744 0.1875
vn 0.224556 -0.337214 0.914255
vt -0.0509192 -0.0428576
v 0.422247 0.135083 0.1875
vn 0.186447 -0.359689 0.914255
vt -0.0529118 -0.0428576
v 0.422247 0.135083 0.1875
vn 0.186447 -0.359689 0.914255
vt -0.0454206 -0.0465649
v 0.371619 0.0469937 0.125
vn 0.279992 -0.668024 0.689455
vt -0.0469458 -0.0481628
v 0.449667 0.082185 0.125
vn 0.333095 -0.6426 0.69001
vt -0.0453604 -0.0481628
v 0.371619 0.0469937 0.125
vn 0.279992 -0.668024 0.689455
vt -0.0469458 -0.0481628
v 0.422247 0.135083 0.1875
vn 0.186447 -0.359689 0.914255
vt -0.0454206 -0.0465649
v 0.348636 0.101892 0.1875
vn 0.154464 -0.368519 0.916698
vt -0.046916 -0.0465649
v 0.348636 0.101892 0.1875
vn 0.154464 -0.368519 0.916698
vt -0.0430499 -0.0481993
v 0.318918 0.0265925 0.125
vn 0.262157 -0.6755 0.689183
vt -0.0440674 -0.0497967
v 0.371619 0.0469937 0.125
vn 0.279992 -0.668024 0.689455
vt -0.0430209 -0.0497973
v 0.348636 0.101892 0.1875
vn 0.154464 -0.368519 0.916698
vt -0.0430499 -0.0481993
v 0.302667 0.0664967 0.170743
vn 0.262157 -0.6755 0.689183
vt -0.0440806 -0.048633
v 0.318918 0.0265925 0.125
vn 0.262157 -0.6755 0.689183
vt -0.0440674 -0.0497967
v 0.302667 0.0664967 0.170743
vn 0.262157 -0.6755 0.689183
vt -0.0440806 -0.048633
v 0.348636 0.101892 0.1875
vn 0.154464 -0.368519 0.916698
vt -0.0430499 -0.0481993
v 0.296618 0.081652 0.1875
vn -0.302296 -0.250327 0.919757
vt -0.0440835 -0.0482
v 0.371619 0.0469937 0.125
vn 0 0 1
vt -0.0130838 -0.0851945
v 0.323817 0.0297564 0.125
vn 0 0 1
vt -0.013969 -0.0855137
v 0.318918 0.0265925 0.125
vn 0 0 1
vt -0.0140598 -0.0855723
v 0.94826 0.902447 0.0625
vn 0.402724 -0.0441764 -0.914255
vt 0.00240527 -0.0693527
v 0.954224 4.65874 0.0625
vn 0.422026 0.137498 -0.896096
vt 0.00229482 0.000208241
v 0.954224 1.01151 0.0625
vn 0.399559 -0.0109164 -0.916643
vt 0.00229482 -0.067333
v 0.930704 0.796286 0.0625
vn 0.395506 -0.0878261 -0.914255
vt 0.00273037 -0.0713187
v 0.954224 4.65874 0.0625
vn 0.422026 0.137498 -0.896096
vt 0.00229482 0.000208241
v 0.94826 0.902447 0.0625
vn 0.402724 -0.0441764 -0.914255
vt 0.00240527 -0.0693527
v 0.901678 0.692672 0.0625
vn 0.383571 -0.130428 -0.914255
vt 0.00326791 -0.0732375
v 0.954224 4.65874 0.0625
vn 0.422026 0.137498 -0.896096
vt 0.00229482 0.000208241
v 0.930704 0.796286 0.0625
vn 0.395506 -0.0878261 -0.914255
vt 0.00273037 -0.0713187
v 0.861526 0.592841 0.0625
vn 0.367062 -0.171475 -0.914255
vt 0.00401146 -0.0750862
v 0.954224 4.65874 0.0625
vn 0.422026 0.137498 -0.896096
vt 0.00229482 0.000208241
v 0.901678 0.692672 0.0625
vn 0.383571 -0.130428 -0.914255
vt 0.00326791 -0.0732375
v 0.810728 0.497983 0.0625
vn 0.346176 -0.210477 -0.914255
vt 0.00495217 -0.0768428
v 0.954224 4.65874 0.0625
vn 0.422026 0.137498 -0.896096
vt 0.00229482 0.000208241
v 0.861526 0.592841 0.0625
vn 0.367062 -0.171475 -0.914255
vt 0.00401146 -0.0750862
v 0.810728 0.497983 0.0625
vn 0.346176 -0.210477 -0.914255
vt 0.00495217 -0.0768428
v 0.762446 4.92181 0.0625
vn 0.00524719 0.409501 -0.912295
vt 0.00584627 0.00508
v 0.954224 4.65874 0.0625
vn 0.422026 0.137498 -0.896096
vt 0.00229482 0.000208241
v 0.749889 0.40923 0.0625
vn 0.321161 -0.246969 -0.914255
vt 0.0060788 -0.0784864
v 0.762446 4.92181 0.0625
vn 0.00524719 0.409501 -0.912295
vt 0.00584627 0.00508
v 0.810728 0.497983 0.0625
vn 0.346176 -0.210477 -0.914255
vt 0.00495217 -0.0768428
v 0.679736 0.32764 0.0625
vn 0.292317 -0.280516 -0.914255
vt 0.00737794 -0.0799973
v 0.762446 4.92181 0.0625
vn 0.00524719 0.409501 -0.912295
vt 0.00584627 0.00508
v 0.749889 0.40923 0.0625
vn 0.321161 -0.246969 -0.914255
vt 0.0060788 -0.0784864
v 0.601104 0.254186 0.0625
vn 0.259986 -0.310718 -0.914255
vt 0.00883408 -0.0813576
v 0.762446 4.92181 0.0625
vn 0.00524719 0.409501 -0.912295
vt 0.00584627 0.00508
v 0.679736 0.32764 0.0625
vn 0.292317 -0.280516 -0.914255
vt 0.00737794 -0.0799973
v 0.514932 0.189744 0.0625
vn 0.224556 -0.337214 -0.914255
vt 0.0104299 -0.0825509
v 0.762446 4.92181 0.0625
vn 0.00524719 0.409501 -0.912295
vt 0.00584627 0.00508
v 0.601104 0.254186 0.0625
vn 0.259986 -0.310718 -0.914255
vt 0.00883408 -0.0813576
v 0.514932 0.189744 0.0625
vn 0.224556 -0.337214 -0.914255
vt 0.0104299 -0.0825509
v 0.501403 4.58235 0.0625
vn -0.001826 0.124658 -0.992198
vt 0.0106804 -0.00120635
v 0.762446 4.92181 0.0625
vn 0.00524719 0.409501 -0.912295
vt 0.00584627 0.00508
v 0.422247 0.135083 0.0625
vn 0.186447 -0.359689 -0.914255
vt 0.0121462 -0.0835632
v 0.501403 4.58235 0.0625
vn -0.001826 0.124658 -0.992198
vt 0.0106804 -0.00120635
v 0.514932 0.189744 0.0625
vn 0.224556 -0.337214 -0.914255
vt 0.0104299 -0.0825509
v 0.348636 0.101892 0.0625
vn 0.154464 -0.368519 -0.916698
vt 0.0135094 -0.0841778
v 0.501403 4.58235 0.0625
vn -0.001826 0.124658 -0.992198
vt 0.0106804 -0.00120635
v 0.422247 0.135083 0.0625
vn 0.186447 -0.359689 -0.914255
vt 0.0121462 -0.0835632
v 0.348636 0.101892 0.0625
vn 0.154464 -0.368519 -0.916698
vt 0.0135094 -0.0841778
v 0.296618 4.8331 0.0625
vn -0.0956891 0.268442 -0.958531
vt 0.0144727 0.00343714
v 0.501403 4.58235 0.0625
vn -0.001826 0.124658 -0.992198
vt 0.0106804 -0.00120635
v 0.296618 4.8331 0.0625
vn -0.0956891 0.268442 -0.958531
vt 0.0144727 0.00343714
v 0.348636 0.101892 0.0625
vn 0.154464 -0.368519 -0.916698
vt 0.0135094 -0.0841778
v 0.296618 0.081652 0.0625
vn -0.302686 -0.249926 -0.919738
vt 0.0144727 -0.0845526
v 0.296618 4.8331 0.0625
vn -0.0956891 0.268442 -0.958531
vt 0.0118168 -0.00539123
v 0.5 4.67812 0.125
vn 0.560998 0.458163 -0.68947
vt 0.00721159 -0.00379329
v 0.501403 4.58235 0.0625
vn -0.001826 0.124658 -0.992198
vt 0.00582151 -0.00539123
v 0.5 4.67812 0.125
vn 0.560998 0.458163 -0.68947
vt 0.00721159 -0.00379329
v 0.296618 4.8331 0.0625
vn -0.0956891 0.268442 -0.958531
vt 0.0118168 -0.00539123
v 0.237125 5 0.125
vn 0.560998 0.458163 -0.68947
vt 0.0149076 -0.00379329
v 0.5 4.67812 0.125
vn 0.560998 0.458163 0.68947
vt 0.00721159 0.0071466
v 0.296618 4.8331 0.1875
vn -0.0956891 0.268442 0.958531
vt 0.0118168 0.00874454
v 0.501403 4.58235 0.1875
vn -0.001826 0.124658 0.992198
vt 0.00582151 0.00874454
v 0.296618 4.8331 0.1875
vn -0.0956891 0.268442 0.958531
vt 0.0118168 0.00874454
v 0.5 4.67812 0.125
vn 0.560998 0.458163 0.68947
vt 0.00721159 0.0071466
v 0.237125 5 0.125
vn 0.560998 0.458163 0.68947
vt 0.0149076 0.0071466
v 0.954224 4.65874 0.1875
vn 0.422026 0.137498 0.896096
vt -0.00229482 0.000208241
v 0.94826 0.902447 0.1875
vn 0.402724 -0.0441764 0.914255
vt -0.00240527 -0.0693527
v 0.954224 1.01151 0.1875
vn 0.399559 -0.0109164 0.916643
vt -0.00229482 -0.067333
v 0.954224 4.65874 0.1875
vn 0.422026 0.137498 0.896096
vt -0.00229482 0.000208241
v 0.930704 0.796286 0.1875
vn 0.395506 -0.0878261 0.914255
vt -0.00273037 -0.0713187
v 0.94826 0.902447 0.1875
vn 0.402724 -0.0441764 0.914255
vt -0.00240527 -0.0693527
v 0.954224 4.65874 0.1875
vn 0.422026 0.137498 0.896096
vt -0.00229482 0.000208241
v 0.901678 0.692672 0.1875
vn 0.383571 -0.130428 0.914255
vt -0.00326791 -0.0732375
v 0.930704 0.796286 0.1875
vn 0.395506 -0.0878261 0.914255
vt -0.00273037 -0.0713187
v 0.954224 4.65874 0.1875
vn 0.422026 0.137498 0.896096
vt -0.00229482 0.000208241
v 0.861526 0.592841 0.1875
vn 0.367062 -0.171475 0.914255
vt -0.00401146 -0.0750862
v 0.901678 0.692672 0.1875
vn 0.383571 -0.130428 0.914255
vt -0.00326791 -0.0732375
v 0.954224 4.65874 0.1875
vn 0.422026 0.137498 0.896096
vt -0.00229482 0.000208241
v 0.810728 0.497983 0.1875
vn 0.346176 -0.210477 0.914255
vt -0.00495217 -0.0768428
v 0.861526 0.592841 0.1875
vn 0.367062 -0.171475 0.914255
vt -0.00401146 -0.0750862
v 0.762446 4.92181 0.1875
vn 0.00524719 0.409501 0.912295
vt -0.00584627 0.00508
v 0.810728 0.497983 0.1875
vn 0.346176 -0.210477 0.914255
vt -0.00495217 -0.0768428
v 0.954224 4.65874 0.1875
vn 0.422026 0.137498 0.896096
vt -0.00229482 0.000208241
v 0.762446 4.92181 0.1875
vn 0.00524719 0.409501 0.912295
vt -0.00584627 0.00508
v 0.749889 0.40923 0.1875
vn 0.321161 -0.246969 0.914255
vt -0.0060788 -0.0784864
v 0.810728 0.497983 0.1875
vn 0.346176 -0.210477 0.914255
vt -0.00495217 -0.0768428
v 0.762446 4.92181 0.1875
vn 0.00524719 0.409501 0.912295
vt -0.00584627 0.00508
v 0.679736 0.32764 0.1875
vn 0.292317 -0.280516 0.914255
vt -0.00737794 -0.0799973
v 0.749889 0.40923 0.1875
vn 0.321161 -0.246969 0.914255
vt -0.0060788 -0.0784864
v 0.762446 4.92181 0.1875
vn 0.00524719 0.409501 0.912295
vt -0.00584627 0.00508
v 0.601104 0.254186 0.1875
vn 0.259986 -0.310718 0.914255
vt -0.00883408 -0.0813576
v 0.679736 0.32764 0.1875
vn 0.292317 -0.280516 0.914255
vt -0.00737794 -0.0799973
v 0.762446 4.92181 0.1875
vn 0.00524719 0.409501 0.912295
vt -0.00584627 0.00508
v 0.514932 0.189744 0.1875
vn 0.224556 -0.337214 0.914255
vt -0.0104299 -0.0825509
v 0.601104 0.254186 0.1875
vn 0.259986 -0.310718 0.914255
vt -0.00883408 -0.0813576
v 0.501403 4.58235 0.1875
vn -0.001826 0.124658 0.992198
vt -0.0106804 -0.00120635
v 0.514932 0.189744 0.1875
vn 0.224556 -0.337214 0.914255
vt -0.0104299 -0.0825509
v 0.762446 4.92181 0.1875
vn 0.00524719 0.409501 0.912295
vt -0.00584627 0.00508
v 0.501403 4.58235 0.1875
vn -0.001826 0.124658 0.992198
vt -0.0106804 -0.00120635
v 0.422247 0.135083 0.1875
vn 0.186447 -0.359689 0.914255
vt -0.0121462 -0.0835632
v 0.514932 0.189744 0.1875
vn 0.224556 -0.337214 0.914255
vt -0.0104299 -0.0825509
v 0.501403 4.58235 0.1875
vn -0.001826 0.124658 0.992198
vt -0.0106804 -0.00120635
v 0.348636 0.101892 0.1875
vn 0.154464 -0.368519 0.916698
vt -0.0135094 -0.0841778
v 0.422247 0.135083 0.1875
vn 0.186447 -0.359689 0.914255
vt -0.0121462 -0.0835632
v 0.296618 4.8331 0.1875
vn -0.0956891 0.268442 0.958531
vt -0.0144727 0.00343714
v 0.348636 0.101892 0.1875
vn 0.154464 -0.368519 0.916698
vt -0.0135094 -0.0841778
v 0.501403 4.58235 0.1875
vn -0.001826 0.124658 0.992198
vt -0.0106804 -0.00120635
v 0.296618 0.123465 0.1875
vn -0.394037 5.33066e-018 0.919095
vt -0.0144727 -0.0837783
v 0.348636 0.101892 0.1875
vn 0.154464 -0.368519 0.916698
vt -0.0135094 -0.0841778
v 0.296618 4.8331 0.1875
vn -0.0956891 0.268442 0.958531
vt -0.0144727 0.00343714
v 0.348636 0.101892 0.1875
vn 0.154464 -0.368519 0.916698
vt -0.0135094 -0.0841778
v 0.296618 0.123465 0.1875
vn -0.394037 5.33066e-018 0.919095
vt -0.0144727 -0.0837783
v 0.296618 0.081652 0.1875
vn -0.302296 -0.250327 0.919757
vt -0.0144727 -0.0845526
v 0.296618 0.123465 0.1875
vn -0.394037 5.33066e-018 0.919095
vt 0.0837783 -0.00746352
v 0.29543 0.0800208 0.186251
vn -0.724315 -2.57599e-018 0.68947
vt 0.0845828 -0.00749544
v 0.296618 0.081652 0.1875
vn -0.302296 -0.250327 0.919757
vt 0.0845526 -0.00746352
v 0.323817 0.0297564 0.125
vn 0 0 1
vt -0.013969 -0.0855137
v 0.314903 0.0250383 0.125
vn 0 0 1
vt -0.0141341 -0.085601
v 0.318918 0.0265925 0.125
vn 0 0 1
vt -0.0140598 -0.0855723
v 0.314903 0.0250383 0.125
vn 0 0 1
vt -0.0141341 -0.085601
v 0.323817 0.0297564 0.125
vn 0 0 1
vt -0.013969 -0.0855137
v 0.276014 0.0125192 0.125
vn 0 0 1
vt -0.0148543 -0.0858329
v 0.296618 0.081652 0.0625
vn -0.302686 -0.249926 -0.919738
vt 0.0845526 0.0108168
v 0.237125 5 0.125
vn -0.724315 1.06261e-017 -0.68947
vt -0.00652788 0.0124148
v 0.296618 4.8331 0.0625
vn -0.0956891 0.268442 -0.958531
vt -0.00343714 0.0108168
v 0.29543 0.0800208 0.0637486
vn -0.724315 1.06261e-017 -0.68947
vt 0.0845828 0.0108487
v 0.237125 5 0.125
vn -0.724315 1.06261e-017 -0.68947
vt -0.00652788 0.0124148
v 0.296618 0.081652 0.0625
vn -0.302686 -0.249926 -0.919738
vt 0.0845526 0.0108168
v 0.29543 0.0800208 0.0637486
vn -0.724315 1.06261e-017 -0.68947
vt 0.0845828 0.0108487
v 0.237125 0.0625 0.125
vn -0.724315 1.06261e-017 -0.68947
vt 0.0849073 0.0124148
v 0.237125 5 0.125
vn -0.724315 1.06261e-017 -0.68947
vt -0.00652788 0.0124148
v 0.29543 0.0800208 0.0637486
vn -0.724315 1.06261e-017 -0.68947
vt 0.0845828 0.0108487
v 0.237125 0.03125 0.125
vn -0.724315 1.06261e-017 -0.68947
vt 0.085486 0.0124148
v 0.237125 0.0625 0.125
vn -0.724315 1.06261e-017 -0.68947
vt 0.0849073 0.0124148
v 0.237125 0.03125 0.125
vn -0.724315 1.06261e-017 -0.68947
vt 0.085486 0.0124148
v 0.29543 0.0800208 0.0637486
vn -0.724315 1.06261e-017 -0.68947
vt 0.0845828 0.0108487
v 0.237125 0 0.125
vn -0.724315 1.06261e-017 -0.68947
vt 0.0860647 0.0124148
v 0.237125 5 0.125
vn -0.724315 9.95697e-018 0.68947
vt -0.00652788 -0.00906145
v 0.296618 0.123465 0.1875
vn -0.394037 5.33066e-018 0.919095
vt 0.0837783 -0.00746352
v 0.296618 4.8331 0.1875
vn -0.0956891 0.268442 0.958531
vt -0.00343714 -0.00746352
v 0.237125 5 0.125
vn -0.724315 9.95697e-018 0.68947
vt -0.00652788 -0.00906145
v 0.29543 0.0800208 0.186251
vn -0.724315 9.95697e-018 0.68947
vt 0.0845828 -0.00749544
v 0.296618 0.123465 0.1875
vn -0.394037 5.33066e-018 0.919095
vt 0.0837783 -0.00746352
v 0.237125 0.0625 0.125
vn -0.724315 9.95697e-018 0.68947
vt 0.0849073 -0.00906145
v 0.29543 0.0800208 0.186251
vn -0.724315 9.95697e-018 0.68947
vt 0.0845828 -0.00749544
v 0.237125 5 0.125
vn -0.724315 9.95697e-018 0.68947
vt -0.00652788 -0.00906145
v 0.237125 0.03125 0.125
vn -0.724315 9.95697e-018 0.68947
vt 0.085486 -0.00906145
v 0.29543 0.0800208 0.186251
vn -0.724315 9.95697e-018 0.68947
vt 0.0845828 -0.00749544
v 0.237125 0.0625 0.125
vn -0.724315 9.95697e-018 0.68947
vt 0.0849073 -0.00906145
v 0.29543 0.0800208 0.186251
vn -0.724315 9.95697e-018 0.68947
vt 0.0845828 -0.00749544
v 0.237125 0.03125 0.125
vn -0.724315 9.95697e-018 0.68947
vt 0.085486 -0.00906145
v 0.237125 0 0.125
vn -0.724315 9.95697e-018 0.68947
vt 0.0860647 -0.00906145
v 0.237125 0 0.125
vn 0.221953 -0.68947 -0.68947
vt -0.0411981 0.0548705
v 0.314903 0.0250383 0.125
vn 0.221953 -0.68947 -0.68947
vt -0.039685 0.0548705
v 0.276014 0.0125192 0.125
vn 0.221953 -0.68947 -0.68947
vt -0.0404416 0.0548705
v 0.314903 0.0250383 0.125
vn 0.221953 -0.68947 -0.68947
vt -0.039685 0.0548705
v 0.237125 0 0.125
vn 0.221953 -0.68947 -0.68947
vt -0.0411981 0.0548705
v 0.29543 0.0800208 0.0637486
vn 0.221953 -0.68947 -0.68947
vt -0.0397163 0.0533045
v 0.29543 0.0800208 0.186251
vn 0.221953 -0.68947 0.68947
vt -0.0397163 -0.0499512
v 0.314903 0.0250383 0.125
vn 0.221953 -0.68947 0.68947
vt -0.039685 -0.0515172
v 0.300298 0.0662751 0.170939
vn 0.221953 -0.68947 0.68947
vt -0.0397085 -0.0503427
v 0.29543 0.0800208 0.186251
vn 0.221953 -0.68947 0.68947
vt -0.0397163 -0.0499512
v 0.276014 0.0125192 0.125
vn 0.221953 -0.68947 0.68947
vt -0.0404416 -0.0515172
v 0.314903 0.0250383 0.125
vn 0.221953 -0.68947 0.68947
vt -0.039685 -0.0515172
v 0.276014 0.0125192 0.125
vn 0.221953 -0.68947 0.68947
vt -0.0404416 -0.0515172
v 0.29543 0.0800208 0.186251
vn 0.221953 -0.68947 0.68947
vt -0.0397163 -0.0499512
v 0.237125 0 0.125
vn 0.221953 -0.68947 0.68947
vt -0.0411981 -0.0515172
v 0.763718 4.77106 0.25
vn 0.718555 -0.260471 0.644852
vt 0.0061708 0.00462963
v 1 10.6781 0
vn 0.589829 0.566708 -0.575277
vt 0.115648 -2.56586e-019
v 1 10.6781 0.25
vn 0.589829 0.566708 0.575277
vt 0.115648 0.00462963
v 1 10.6781 0
vn 0.589829 0.566708 -0.575277
vt 0.115648 -2.56586e-019
v 0.763718 4.77106 0.25
vn 0.718555 -0.260471 0.644852
vt 0.0061708 0.00462963
v 0.763718 4.77106 0
vn 0.718555 -0.260471 -0.644852
vt 0.0061708 -2.56586e-019
v 0.237125 4.75 0
vn -0.716705 -0.271742 -0.642254
vt -0.00652057 3.07903e-018
v 0 10.6781 0.25
vn -0.589829 0.566708 0.575277
vt -0.116388 0.00462963
v 0 10.6781 0
vn -0.589829 0.566708 -0.575277
vt -0.116388 3.07903e-018
v 0 10.6781 0.25
vn -0.589829 0.566708 0.575277
vt -0.116388 0.00462963
v 0.237125 4.75 0
vn -0.716705 -0.271742 -0.642254
vt -0.00652057 3.07903e-018
v 0.237125 4.75 0.25
vn -0.716705 -0.271742 0.642254
vt -0.00652057 0.00462963
v 1 10.6781 0
vn 0.589829 0.566708 -0.575277
vt 0 0
v 0 10.6781 0.25
vn -0.589829 0.566708 0.575277
vt 0.0185185 0.00462963
v 1 10.6781 0.25
vn 0.589829 0.566708 0.575277
vt 0 0.00462963
v 0 10.6781 0.25
vn -0.589829 0.566708 0.575277
vt 0.0185185 0.00462963
v 1 10.6781 0
vn 0.589829 0.566708 -0.575277
vt 0 0
v 0 10.6781 0
vn -0.589829 0.566708 -0.575277
vt 0.0185185 0
v 0.443472 10.4202 0.25
vn 0 0 1
vt -0.0103061 0.110964
v 0.382918 10.3959 0.25
vn 0 0 1
vt -0.0114275 0.110514
v 0.434273 10.3556 0.25
vn 0 0 1
vt -0.0104764 0.109768
v 0.681627 10.103 0.25
vn 0 0 1
vt -0.0058958 0.10509
v 0.720809 10.0508 0.25
vn 0 0 1
vt -0.00517021 0.104123
v 0.746417 10.1108 0.25
vn 0 0 1
vt -0.00469597 0.105235
v 0.681627 10.103 0.25
vn 0 0 1
vt -0.0058958 0.10509
v 0.680536 9.99942 0.25
vn 0 0 1
vt -0.005916 0.103172
v 0.720809 10.0508 0.25
vn 0 0 1
vt -0.00517021 0.104123
v 0.681627 10.103 0.25
vn 0 0 1
vt -0.0058958 0.10509
v 0.628344 9.96024 0.25
vn 0 0 1
vt -0.00688252 0.102447
v 0.680536 9.99942 0.25
vn 0 0 1
vt -0.005916 0.103172
v 0.617015 10.1122 0.25
vn 0 0 1
vt -0.00709231 0.10526
v 0.628344 9.96024 0.25
vn 0 0 1
vt -0.00688252 0.102447
v 0.681627 10.103 0.25
vn 0 0 1
vt -0.0058958 0.10509
v 0.617015 10.1122 0.25
vn 0 0 1
vt -0.00709231 0.10526
v 0.567789 9.9359 0.25
vn 0 0 1
vt -0.00800391 0.101996
v 0.628344 9.96024 0.25
vn 0 0 1
vt -0.00688252 0.102447
v 0.556986 10.1378 0.25
vn 0 0 1
vt -0.00820396 0.105734
v 0.567789 9.9359 0.25
vn 0 0 1
vt -0.00800391 0.101996
v 0.617015 10.1122 0.25
vn 0 0 1
vt -0.00709231 0.10526
v 0.505631 10.1781 0.25
vn 0 0 1
vt -0.00915499 0.10648
v 0.567789 9.9359 0.25
vn 0 0 1
vt -0.00800391 0.101996
v 0.556986 10.1378 0.25
vn 0 0 1
vt -0.00820396 0.105734
v 0.505631 10.1781 0.25
vn 0 0 1
vt -0.00915499 0.10648
v 0.502998 9.92807 0.25
vn 0 0 1
vt -0.00920374 0.101851
v 0.567789 9.9359 0.25
vn 0 0 1
vt -0.00800391 0.101996
v 0.466449 10.2302 0.25
vn 0 0 1
vt -0.00988058 0.107447
v 0.502998 9.92807 0.25
vn 0 0 1
vt -0.00920374 0.101851
v 0.505631 10.1781 0.25
vn 0 0 1
vt -0.00915499 0.10648
v 0.44211 10.2908 0.25
vn 0 0 1
vt -0.0103313 0.108568
v 0.502998 9.92807 0.25
vn 0 0 1
vt -0.00920374 0.101851
v 0.466449 10.2302 0.25
vn 0 0 1
vt -0.00988058 0.107447
v 0.44211 10.2908 0.25
vn 0 0 1
vt -0.0103313 0.108568
v 0.438387 9.93727 0.25
vn 0 0 1
vt -0.0104002 0.102021
v 0.502998 9.92807 0.25
vn 0 0 1
vt -0.00920374 0.101851
v 0.434273 10.3556 0.25
vn 0 0 1
vt -0.0104764 0.109768
v 0.438387 9.93727 0.25
vn 0 0 1
vt -0.0104002 0.102021
v 0.44211 10.2908 0.25
vn 0 0 1
vt -0.0103313 0.108568
v 0.382918 10.3959 0.25
vn 0 0 1
vt -0.0114275 0.110514
v 0.438387 9.93727 0.25
vn 0 0 1
vt -0.0104002 0.102021
v 0.434273 10.3556 0.25
vn 0 0 1
vt -0.0104764 0.109768
v 0.382918 10.3959 0.25
vn 0 0 1
vt -0.0114275 0.110514
v 0.378358 9.96287 0.25
vn 0 0 1
vt -0.0115119 0.102495
v 0.438387 9.93727 0.25
vn 0 0 1
vt -0.0104002 0.102021
v 0.330725 10.3567 0.25
vn 0 0 1
vt -0.012394 0.109788
v 0.378358 9.96287 0.25
vn 0 0 1
vt -0.0115119 0.102495
v 0.382918 10.3959 0.25
vn 0 0 1
vt -0.0114275 0.110514
v 0.330725 10.3567 0.25
vn 0 0 1
vt -0.012394 0.109788
v 0.327002 10.0031 0.25
vn 0 0 1
vt -0.0124629 0.103241
v 0.378358 9.96287 0.25
vn 0 0 1
vt -0.0115119 0.102495
v 0.290453 10.3053 0.25
vn 0 0 1
vt -0.0131398 0.108837
v 0.327002 10.0031 0.25
vn 0 0 1
vt -0.0124629 0.103241
v 0.330725 10.3567 0.25
vn 0 0 1
vt -0.012394 0.109788
v 0.290453 10.3053 0.25
vn 0 0 1
vt -0.0131398 0.108837
v 0.28782 10.0553 0.25
vn 0 0 1
vt -0.0131885 0.104208
v 0.327002 10.0031 0.25
vn 0 0 1
vt -0.0124629 0.103241
v 0.264844 10.2453 0.25
vn 0 0 1
vt -0.013614 0.107725
v 0.28782 10.0553 0.25
vn 0 0 1
vt -0.0131885 0.104208
v 0.290453 10.3053 0.25
vn 0 0 1
vt -0.0131398 0.108837
v 0.264844 10.2453 0.25
vn 0 0 1
vt -0.013614 0.107725
v 0.263481 10.1159 0.25
vn 0 0 1
vt -0.0136392 0.105329
v 0.28782 10.0553 0.25
vn 0 0 1
vt -0.0131885 0.104208
v 0.263481 10.1159 0.25
vn 0 0 1
vt -0.0136392 0.105329
v 0.264844 10.2453 0.25
vn 0 0 1
vt -0.013614 0.107725
v 0.255645 10.1807 0.25
vn 0 0 1
vt -0.0137844 0.106529
v 0.501403 4.58235 0.0625
vn -0.001826 0.124658 -0.992198
vt 0 0
v 0.763718 5.02106 0.125
vn -0.574176 0.441535 -0.68947
vt 0 0
v 0.762446 4.92181 0.0625
vn 0.00524719 0.409501 -0.912295
vt 0 0
v 0.763718 5.02106 0.125
vn -0.574176 0.441535 -0.68947
vt 0 0
v 0.501403 4.58235 0.0625
vn -0.001826 0.124658 -0.992198
vt 0 0
v 0.5 4.67812 0.125
vn -0.574176 0.441535 -0.68947
vt 0 0
v 0.763718 5.02106 0.125
vn -0.574176 0.441535 0.68947
vt 0 0
v 0.501403 4.58235 0.1875
vn -0.001826 0.124658 0.992198
vt 0 0
v 0.762446 4.92181 0.1875
vn 0.00524719 0.409501 0.912295
vt 0 0
v 0.501403 4.58235 0.1875
vn -0.001826 0.124658 0.992198
vt 0 0
v 0.763718 5.02106 0.125
vn -0.574176 0.441535 0.68947
vt 0 0
v 0.5 4.67812 0.125
vn -0.574176 0.441535 0.68947
vt 0 0
v 1.01372 4.67812 0.125
vn 0 0 1
vt 0 0
v 1.00749 0.89595 0.125
vn 0 0 1
vt 0 0
v 1.01372 1.00989 0.125
vn 0 0 1
vt 0 0
v 1.01372 4.67812 0.125
vn 0 0 1
vt 0 0
v 0.98887 0.783369 0.125
vn 0 0 1
vt 0 0
v 1.00749 0.89595 0.125
vn 0 0 1
vt 0 0
v 1.01372 4.67812 0.125
vn 0 0 1
vt 0 0
v 0.958088 0.67349 0.125
vn 0 0 1
vt 0 0
v 0.98887 0.783369 0.125
vn 0 0 1
vt 0 0
v 1.01372 4.67812 0.125
vn 0 0 1
vt 0 0
v 0.915508 0.567623 0.125
vn 0 0 1
vt 0 0
v 0.958088 0.67349 0.125
vn 0 0 1
vt 0 0
v 1.01372 4.67812 0.125
vn 0 0 1
vt 0 0
v 0.861638 0.467029 0.125
vn 0 0 1
vt 0 0
v 0.915508 0.567623 0.125
vn 0 0 1
vt 0 0
v 1.01372 4.67812 0.125
vn 0 0 1
vt 0 0
v 0.797121 0.37291 0.125
vn 0 0 1
vt 0 0
v 0.861638 0.467029 0.125
vn 0 0 1
vt 0 0
v 0.763718 5.02106 0.125
vn 0 0 1
vt 0 0
v 0.797121 0.37291 0.125
vn 0 0 1
vt 0 0
v 1.01372 4.67812 0.125
vn 0 0 1
vt 0 0
v 0.763718 5.02106 0.125
vn 0 0 1
vt 0 0
v 0.722726 0.286386 0.125
vn 0 0 1
vt 0 0
v 0.797121 0.37291 0.125
vn 0 0 1
vt 0 0
v 0.763718 5.02106 0.125
vn 0 0 1
vt 0 0
v 0.63934 0.20849 0.125
vn 0 0 1
vt 0 0
v 0.722726 0.286386 0.125
vn 0 0 1
vt 0 0
v 0.763718 5.02106 0.125
vn 0 0 1
vt 0 0
v 0.547957 0.140152 0.125
vn 0 0 1
vt 0 0
v 0.63934 0.20849 0.125
vn 0 0 1
vt 0 0
v 0.5 4.67812 0.125
vn 0 0 1
vt 0 0
v 0.547957 0.140152 0.125
vn 0 0 1
vt 0 0
v 0.763718 5.02106 0.125
vn 0 0 1
vt 0 0
v 0.5 4.67812 0.125
vn 0 0 1
vt 0 0
v 0.449667 0.082185 0.125
vn 0 0 1
vt 0 0
v 0.547957 0.140152 0.125
vn 0 0 1
vt 0 0
v 0.5 4.67812 0.125
vn 0 0 1
vt 0 0
v 0.371619 0.0469937 0.125
vn 0 0 1
vt 0 0
v 0.449667 0.082185 0.125
vn 0 0 1
vt 0 0
v 0.5 4.67812 0.125
vn 0 0 1
vt 0 0
v 0.323817 0.0297564 0.125
vn 0 0 1
vt 0 0
v 0.371619 0.0469937 0.125
vn 0 0 1
vt 0 0
v 0.5 4.67812 0.125
vn 0 0 1
vt 0 0
v 0.276014 0.0125192 0.125
vn 0 0 1
vt 0 0
v 0.323817 0.0297564 0.125
vn 0 0 1
vt 0 0
v 0.237125 5 0.125
vn 0 0 1
vt 0 0
v 0.276014 0.0125192 0.125
vn 0 0 1
vt 0 0
v 0.5 4.67812 0.125
vn 0 0 1
vt 0 0
v 0.237125 0.0625 0.125
vn 0 0 1
vt 0 0
v 0.276014 0.0125192 0.125
vn 0 0 1
vt 0 0
v 0.237125 5 0.125
vn 0 0 1
vt 0 0
v 0.237125 0.03125 0.125
vn 0 0 1
vt 0 0
v 0.276014 0.0125192 0.125
vn 0 0 1
vt 0 0
v 0.237125 0.0625 0.125
vn 0 0 1
vt 0 0
v 0.276014 0.0125192 0.125
vn 0 0 1
vt 0 0
v 0.237125 0.03125 0.125
vn 0 0 1
vt 0 0
v 0.237125 0 0.125
vn 0 0 1
vt 0 0
v 0.5 4.42812 0
vn 0.0120727 -0.824185 -0.566192
vt 0.00925926 0
v 1 10.6781 0
vn 0.589829 0.566708 -0.575277
vt 0 0.115741
v 0.763718 4.77106 0
vn 0.718555 -0.260471 -0.644852
vt 0.0043756 0.00635076
v 0.237125 4.75 0
vn -0.716705 -0.271742 -0.642254
vt 0.0141273 0.00596069
v 1 10.6781 0
vn 0.589829 0.566708 -0.575277
vt 0 0.115741
v 0.5 4.42812 0
vn 0.0120727 -0.824185 -0.566192
vt 0.00925926 0
v 1 10.6781 0
vn 0.589829 0.566708 -0.575277
vt 0 0.115741
v 0.237125 4.75 0
vn -0.716705 -0.271742 -0.642254
vt 0.0141273 0.00596069
v 0 10.6781 0
vn -0.589829 0.566708 -0.575277
vt 0.0185185 0.115741
v 0.5 4.42812 0.25
vn 0.0120727 -0.824185 0.566192
vt -0.00564435 0.00462963
v 0.763718 4.77106 0
vn 0.718555 -0.260471 -0.644852
vt 0.00236704 -3.22993e-019
v 0.763718 4.77106 0.25
vn 0.718555 -0.260471 0.644852
vt 0.00236704 0.00462963
v 0.763718 4.77106 0
vn 0.718555 -0.260471 -0.644852
vt 0.00236704 -3.22993e-019
v 0.5 4.42812 0.25
vn 0.0120727 -0.824185 0.566192
vt -0.00564435 0.00462963
v 0.5 4.42812 0
vn 0.0120727 -0.824185 -0.566192
vt -0.00564435 -3.22993e-019
v 0.5 4.42812 0
vn 0.0120727 -0.824185 -0.566192
vt -0.00585692 1.23334e-018
v 0.237125 4.75 0.25
vn -0.716705 -0.271742 0.642254
vt -0.0135529 0.00462963
v 0.237125 4.75 0
vn -0.716705 -0.271742 -0.642254
vt -0.0135529 1.23334e-018
v 0.237125 4.75 0.25
vn -0.716705 -0.271742 0.642254
vt -0.0135529 0.00462963
v 0.5 4.42812 0
vn 0.0120727 -0.824185 -0.566192
vt -0.00585692 1.23334e-018
v 0.5 4.42812 0.25
vn 0.0120727 -0.824185 0.566192
vt -0.00585692 0.00462963
v 1 10.6781 0.25
vn 0.589829 0.566708 0.575277
vt 0 0.115741
v 0.746417 10.1108 0.25
vn 0 0 1
vt -0.00469597 0.105235
v 0.763718 4.77106 0.25
vn 0.718555 -0.260471 0.644852
vt -0.0043756 0.00635076
v 1 10.6781 0.25
vn 0.589829 0.566708 0.575277
vt 0 0.115741
v 0.681627 10.103 0.25
vn 0 0 1
vt -0.0058958 0.10509
v 0.746417 10.1108 0.25
vn 0 0 1
vt -0.00469597 0.105235
v 1 10.6781 0.25
vn 0.589829 0.566708 0.575277
vt 0 0.115741
v 0.617015 10.1122 0.25
vn 0 0 1
vt -0.00709231 0.10526
v 0.681627 10.103 0.25
vn 0 0 1
vt -0.0058958 0.10509
v 1 10.6781 0.25
vn 0.589829 0.566708 0.575277
vt 0 0.115741
v 0.556986 10.1378 0.25
vn 0 0 1
vt -0.00820396 0.105734
v 0.617015 10.1122 0.25
vn 0 0 1
vt -0.00709231 0.10526
v 1 10.6781 0.25
vn 0.589829 0.566708 0.575277
vt 0 0.115741
v 0.505631 10.1781 0.25
vn 0 0 1
vt -0.00915499 0.10648
v 0.556986 10.1378 0.25
vn 0 0 1
vt -0.00820396 0.105734
v 1 10.6781 0.25
vn 0.589829 0.566708 0.575277
vt 0 0.115741
v 0.466449 10.2302 0.25
vn 0 0 1
vt -0.00988058 0.107447
v 0.505631 10.1781 0.25
vn 0 0 1
vt -0.00915499 0.10648
v 1 10.6781 0.25
vn 0.589829 0.566708 0.575277
vt 0 0.115741
v 0.443472 10.4202 0.25
vn 0 0 1
vt -0.0103061 0.110964
v 0.466449 10.2302 0.25
vn 0 0 1
vt -0.00988058 0.107447
v 1 10.6781 0.25
vn 0.589829 0.566708 0.575277
vt 0 0.115741
v 0.382918 10.3959 0.25
vn 0 0 1
vt -0.0114275 0.110514
v 0.443472 10.4202 0.25
vn 0 0 1
vt -0.0103061 0.110964
v 0.255645 10.1807 0.25
vn 0 0 1
vt -0.0137844 0.106529
v 0 10.6781 0.25
vn -0.589829 0.566708 0.575277
vt -0.0185185 0.115741
v 0.237125 4.75 0.25
vn -0.716705 -0.271742 0.642254
vt -0.0141273 0.00596069
v 0.264844 10.2453 0.25
vn 0 0 1
vt -0.013614 0.107725
v 0 10.6781 0.25
vn -0.589829 0.566708 0.575277
vt -0.0185185 0.115741
v 0.255645 10.1807 0.25
vn 0 0 1
vt -0.0137844 0.106529
v 0.290453 10.3053 0.25
vn 0 0 1
vt -0.0131398 0.108837
v 0 10.6781 0.25
vn -0.589829 0.566708 0.575277
vt -0.0185185 0.115741
v 0.264844 10.2453 0.25
vn 0 0 1
vt -0.013614 0.107725
v 0.330725 10.3567 0.25
vn 0 0 1
vt -0.012394 0.109788
v 0 10.6781 0.25
vn -0.589829 0.566708 0.575277
vt -0.0185185 0.115741
v 0.290453 10.3053 0.25
vn 0 0 1
vt -0.0131398 0.108837
v 0.382918 10.3959 0.25
vn 0 0 1
vt -0.0114275 0.110514
v 0 10.6781 0.25
vn -0.589829 0.566708 0.575277
vt -0.0185185 0.115741
v 0.330725 10.3567 0.25
vn 0 0 1
vt -0.012394 0.109788
v 0 10.6781 0.25
vn -0.589829 0.566708 0.575277
vt -0.0185185 0.115741
v 0.382918 10.3959 0.25
vn 0 0 1
vt -0.0114275 0.110514
v 1 10.6781 0.25
vn 0.589829 0.566708 0.575277
vt 0 0.115741
v 0.720809 10.0508 0.25
vn 0 0 1
vt -0.00517021 0.104123
v 0.763718 4.77106 0.25
vn 0.718555 -0.260471 0.644852
vt -0.0043756 0.00635076
v 0.746417 10.1108 0.25
vn 0 0 1
vt -0.00469597 0.105235
v 0.680536 9.99942 0.25
vn 0 0 1
vt -0.005916 0.103172
v 0.763718 4.77106 0.25
vn 0.718555 -0.260471 0.644852
vt -0.0043756 0.00635076
v 0.720809 10.0508 0.25
vn 0 0 1
vt -0.00517021 0.104123
v 0.628344 9.96024 0.25
vn 0 0 1
vt -0.00688252 0.102447
v 0.763718 4.77106 0.25
vn 0.718555 -0.260471 0.644852
vt -0.0043756 0.00635076
v 0.680536 9.99942 0.25
vn 0 0 1
vt -0.005916 0.103172
v 0.567789 9.9359 0.25
vn 0 0 1
vt -0.00800391 0.101996
v 0.763718 4.77106 0.25
vn 0.718555 -0.260471 0.644852
vt -0.0043756 0.00635076
v 0.628344 9.96024 0.25
vn 0 0 1
vt -0.00688252 0.102447
v 0.502998 9.92807 0.25
vn 0 0 1
vt -0.00920374 0.101851
v 0.763718 4.77106 0.25
vn 0.718555 -0.260471 0.644852
vt -0.0043756 0.00635076
v 0.567789 9.9359 0.25
vn 0 0 1
vt -0.00800391 0.101996
v 0.438387 9.93727 0.25
vn 0 0 1
vt -0.0104002 0.102021
v 0.763718 4.77106 0.25
vn 0.718555 -0.260471 0.644852
vt -0.0043756 0.00635076
v 0.502998 9.92807 0.25
vn 0 0 1
vt -0.00920374 0.101851
v 0.378358 9.96287 0.25
vn 0 0 1
vt -0.0115119 0.102495
v 0.763718 4.77106 0.25
vn 0.718555 -0.260471 0.644852
vt -0.0043756 0.00635076
v 0.438387 9.93727 0.25
vn 0 0 1
vt -0.0104002 0.102021
v 0.327002 10.0031 0.25
vn 0 0 1
vt -0.0124629 0.103241
v 0.763718 4.77106 0.25
vn 0.718555 -0.260471 0.644852
vt -0.0043756 0.00635076
v 0.378358 9.96287 0.25
vn 0 0 1
vt -0.0115119 0.102495
v 0.28782 10.0553 0.25
vn 0 0 1
vt -0.0131885 0.104208
v 0.763718 4.77106 0.25
vn 0.718555 -0.260471 0.644852
vt -0.0043756 0.00635076
v 0.327002 10.0031 0.25
vn 0 0 1
vt -0.0124629 0.103241
v 0.263481 10.1159 0.25
vn 0 0 1
vt -0.0136392 0.105329
v 0.763718 4.77106 0.25
vn 0.718555 -0.260471 0.644852
vt -0.0043756 0.00635076
v 0.28782 10.0553 0.25
vn 0 0 1
vt -0.0131885 0.104208
v 0.255645 10.1807 0.25
vn 0 0 1
vt -0.0137844 0.106529
v 0.763718 4.77106 0.25
vn 0.718555 -0.260471 0.644852
vt -0.0043756 0.00635076
v 0.263481 10.1159 0.25
vn 0 0 1
vt -0.0136392 0.105329
v 0.763718 4.77106 0.25
vn 0.718555 -0.260471 0.644852
vt -0.0043756 0.00635076
v 0.255645 10.1807 0.25
vn 0 0 1
vt -0.0137844 0.106529
v 0.237125 4.75 0.25
vn -0.716705 -0.271742 0.642254
vt -0.0141273 0.00596069
v 0.443472 10.4202 0.25
vn 0 0 1
vt -0.0103061 0.110964
v 0.44211 10.2908 0.25
vn 0 0 1
vt -0.0103313 0.108568
v 0.466449 10.2302 0.25
vn 0 0 1
vt -0.00988058 0.107447
v 0.44211 10.2908 0.25
vn 0 0 1
vt -0.0103313 0.108568
v 0.443472 10.4202 0.25
vn 0 0 1
vt -0.0103061 0.110964
v 0.434273 10.3556 0.25
vn 0 0 1
vt -0.0104764 0.109768
v 0.763718 4.77106 0.25
vn 0.718555 -0.260471 0.644852
vt -0.0043756 0.00635076
v 0.237125 4.75 0.25
vn -0.716705 -0.271742 0.642254
vt -0.0141273 0.00596069
v 0.5 4.42812 0.25
vn 0.0120727 -0.824185 0.566192
vt -0.00925926 0
g butter knife
usemtl m0
f 1/1/1 2/2/2 3/3/3
f 4/4/4 5/5/5 6/6/6
f 7/7/7 8/8/8 9/9/9
f 10/10/10 11/11/11 12/12/12
f 13/13/13 14/14/14 15/15/15
f 16/16/16 17/17/17 18/18/18
f 19/19/19 20/20/20 21/21/21
f 22/22/22 23/23/23 24/24/24
f 25/25/25 26/26/26 27/27/27
f 28/28/28 29/29/29 30/30/30
f 31/31/31 32/32/32 33/33/33
f 34/34/34 35/35/35 36/36/36
f 37/37/37 38/38/38 39/39/39
f 40/40/40 41/41/41 42/42/42
f 43/43/43 44/44/44 45/45/45
f 46/46/46 47/47/47 48/48/48
f 49/49/49 50/50/50 51/51/51
f 52/52/52 53/53/53 54/54/54
f 55/55/55 56/56/56 57/57/57
f 58/58/58 59/59/59 60/60/60
f 61/61/61 62/62/62 63/63/63
f 64/64/64 65/65/65 66/66/66
f 67/67/67 68/68/68 69/69/69
f 70/70/70 71/71/71 72/72/72
f 73/73/73 74/74/74 75/75/75
f 76/76/76 77/77/77 78/78/78
f 79/79/79 80/80/80 81/81/81
f 82/82/82 83/83/83 84/84/84
f 85/85/85 86/86/86 87/87/87
f 88/88/88 89/89/89 90/90/90
f 91/91/91 92/92/92 93/93/93
f 94/94/94 95/95/95 96/96/96
f 97/97/97 98/98/98 99/99/99
f 100/100/100 101/101/101 102/102/102
f 103/103/103 104/104/104 105/105/105
f 106/106/106 107/107/107 108/108/108
f 109/109/109 110/110/110 111/111/111
f 112/112/112 113/113/113 114/114/114
f 115/115/115 116/116/116 117/117/117
f 118/118/118 119/119/119 120/120/120
f 121/121/121 122/122/122 123/123/123
f 124/124/124 125/125/125 126/126/126
f 127/127/127 128/128/128 129/129/129
f 130/130/130 131/131/131 132/132/132
f 133/133/133 134/134/134 135/135/135
f 136/136/136 137/137/137 138/138/138
f 139/139/139 140/140/140 141/141/141
f 142/142/142 143/143/143 144/144/144
f 145/145/145 146/146/146 147/147/147
f 148/148/148 149/149/149 150/150/150
f 151/151/151 152/152/152 153/153/153
f 154/154/154 155/155/155 156/156/156
f 157/157/157 158/158/158 159/159/159
f 160/160/160 161/161/161 162/162/162
f 163/163/163 164/164/164 165/165/165
f 166/166/166 167/167/167 168/168/168
f 169/169/169 170/170/170 171/171/171
f 172/172/172 173/173/173 174/174/174
f 175/175/175 176/176/176 177/177/177
f 178/178/178 179/179/179 180/180/180
f 181/181/181 182/182/182 183/183/183
f 184/184/184 185/185/185 186/186/186
f 187/187/187 188/188/188 189/189/189
f 190/190/190 191/191/191 192/192/192
f 193/193/193 194/194/194 195/195/195
f 196/196/196 197/197/197 198/198/198
f 199/199/199 200/200/200 201/201/201
f 202/202/202 203/203/203 204/204/204
f 205/205/205 206/206/206 207/207/207
f 208/208/208 209/209/209 210/210/210
f 211/211/211 212/212/212 213/213/213
f 214/214/214 215/215/215 216/216/216
f 217/217/217 218/218/218 219/219/219
f 220/220/220 221/221/221 222/222/222
f 223/223/223 224/224/224 225/225/225
f 226/226/226 227/227/227 228/228/228
f 229/229/229 230/230/230 231/231/231
f 232/232/232 233/233/233 234/234/234
f 235/235/235 236/236/236 237/237/237
f 238/238/238 239/239/239 240/240/240
f 241/241/241 242/242/242 243/243/243
f 244/244/244 245/245/245 246/246/246
f 247/247/247 248/248/248 249/249/249
f 250/250/250 251/251/251 252/252/252
f 253/253/253 254/254/254 255/255/255
f 256/256/256 257/257/257 258/258/258
f 259/259/259 260/260/260 261/261/261
f 262/262/262 263/263/263 264/264/264
f 265/265/265 266/266/266 267/267/267
f 268/268/268 269/269/269 270/270/270
f 271/271/271 272/272/272 273/273/273
f 274/274/274 275/275/275 276/276/276
f 277/277/277 278/278/278 279/279/279
f 280/280/280 281/281/281 282/282/282
f 283/283/283 284/284/284 285/285/285
f 286/286/286 287/287/287 288/288/288
f 289/289/289 290/290/290 291/291/291
f 292/292/292 293/293/293 294/294/294
f 295/295/295 296/296/296 297/297/297
f 298/298/298 299/299/299 300/300/300
f 301/301/301 302/302/302 303/303/303
f 304/304/304 305/305/305 306/306/306
f 307/307/307 308/308/308 309/309/309
f 310/310/310 311/311/311 312/312/312
f 313/313/313 314/314/314 315/315/315
f 316/316/316 317/317/317 318/318/318
f 319/319/319 320/320/320 321/321/321
f 322/322/322 323/323/323 324/324/324
f 325/325/325 326/326/326 327/327/327
f 328/328/328 329/329/329 330/330/330
f 331/331/331 332/332/332 333/333/333
f 334/334/334 335/335/335 336/336/336
f 337/337/337 338/338/338 339/339/339
f 340/340/340 341/341/341 342/342/342
f 343/343/343 344/344/344 345/345/345
f 346/346/346 347/347/347 348/348/348
f 349/349/349 350/350/350 351/351/351
f 352/352/352 353/353/353 354/354/354
f 355/355/355 356/356/356 357/357/357
f 358/358/358 359/359/359 360/360/360
f 361/361/361 362/362/362 363/363/363
f 364/364/364 365/365/365 366/366/366
f 367/367/367 368/368/368 369/369/369
f 370/370/370 371/371/371 372/372/372
f 373/373/373 374/374/374 375/375/375
f 376/376/376 377/377/377 378/378/378
f 379/379/379 380/380/380 381/381/381
f 382/382/382 383/383/383 384/384/384
f 385/385/385 386/386/386 387/387/387
f 388/388/388 389/389/389 390/390/390
f 391/391/391 392/392/392 393/393/393
f 394/394/394 395/395/395 396/396/396
f 397/397/397 398/398/398 399/399/399
f 400/400/400 401/401/401 402/402/402
f 403/403/403 404/404/404 405/405/405
f 406/406/406 407/407/407 408/408/408
f 409/409/409 410/410/410 411/411/411
f 412/412/412 413/413/413 414/414/414
f 415/415/415 416/416/416 417/417/417
usemtl m1
f 418//418 419//419 420//420
f 421//421 422//422 423//423
f 424//424 425//425 426//426
f 427//427 428//428 429//429
f 430//430 431//431 432//432
f 433//433 434//434 435//435
f 436//436 437//437 438//438
f 439//439 440//440 441//441
f 442//442 443//443 444//444
f 445//445 446//446 447//447
f 448//448 449//449 450//450
f 451//451 452//452 453//453
f 454//454 455//455 456//456
f 457//457 458//458 459//459
f 460//460 461//461 462//462
f 463//463 464//464 465//465
f 466//466 467//467 468//468
f 469//469 470//470 471//471
f 472//472 473//473 474//474
f 475//475 476//476 477//477
f 478//478 479//479 480//480
f 481//481 482//482 483//483
f 484//484 485//485 486//486
usemtl m2
f 487/487/487 488/488/488 489/489/489
f 490/490/490 491/491/491 492/492/492
f 493/493/493 494/494/494 495/495/495
f 496/496/496 497/497/497 498/498/498
f 499/499/499 500/500/500 501/501/501
f 502/502/502 503/503/503 504/504/504
f 505/505/505 506/506/506 507/507/507
f 508/508/508 509/509/509 510/510/510
f 511/511/511 512/512/512 513/513/513
f 514/514/514 515/515/515 516/516/516
f 517/517/517 518/518/518 519/519/519
f 520/520/520 521/521/521 522/522/522
f 523/523/523 524/524/524 525/525/525
f 526/526/526 527/527/527 528/528/528
f 529/529/529 530/530/530 531/531/531
f 532/532/532 533/533/533 534/534/534
f 535/535/535 536/536/536 537/537/537
f 538/538/538 539/539/539 540/540/540
f 541/541/541 542/542/542 543/543/543
f 544/544/544 545/545/545 546/546/546
f 547/547/547 548/548/548 549/549/549
f 550/550/550 551/551/551 552/552/552
f 553/553/553 554/554/554 555/555/555
f 556/556/556 557/557/557 558/558/558
f 559/559/559 560/560/560 561/561/561
f 562/562/562 563/563/563 564/564/564
f 565/565/565 566/566/566 567/567/567
f 568/568/568 569/569/569 570/570/570
f 571/571/571 572/572/572 573/573/573
f 574/574/574 575/575/575 576/576/576
f 577/577/577 578/578/578 579/579/579
f 580/580/580 581/581/581 582/582/582
f 583/583/583 584/584/584 585/585/585
f 586/586/586 587/587/587 588/588/588
f 589/589/589 590/590/590 591/591/591
f 592/592/592 593/593/593 594/594/594
